<?xml version="1.0" encoding="utf-8"?>
<!-- Generator: Adobe Illustrator 24.1.0, SVG Export Plug-In . SVG Version: 6.00 Build 0)  -->
<svg version="1.1" xmlns="http://www.w3.org/2000/svg" xmlns:xlink="http://www.w3.org/1999/xlink" x="0px" y="0px"
	 viewBox="0 0 1688 418" style="enable-background:new 0 0 1688 418;" xml:space="preserve">
<style type="text/css">
	.st0{fill:#66C2CF;}
	.st1{fill:#018DD1;}
	.st2{fill:#038ED2;}
	.st3{fill:#fff;}
	.st4{fill:#fff;}
	.st5{fill:#028DD2;}
</style>
<g id="Layer_3">
</g>
<g id="Layer_2">
</g>
<g id="Layer_1">
	<path class="st0" d="M276.07,417.15c-3-0.04-6-0.07-9.01-0.11c0-16.69,0-33.39-0.01-50.08c5.46-0.45,10.98-0.55,16.38-1.42
		c25.67-4.13,47.22-16.34,65.78-34.2c23.4-22.53,38.94-49.97,49.84-80.25c13.54-37.65,17.56-76.6,15.89-116.35
		c-0.26-6.13-2.6-9.57-8.23-12.41c-34.61-17.45-68.99-35.36-103.48-53.05c-11.98-6.14-24.05-12.09-36.08-18.13
		c-0.06-16.68-0.13-33.37-0.19-50.05c1.85-0.64,3.21,0.58,4.63,1.31c61.99,31.89,123.95,63.82,185.95,95.69
		c2.27,1.17,3.42,2.46,3.68,5.23c2.35,25.77,1.68,51.47-1.08,77.17c-4.88,45.46-17.26,88.62-38.91,129
		c-2.43,4.54-4.97,9.01-7.46,13.52c-2.9,4.34-5.8,8.67-8.7,13.01c-2.17,2.93-4.74,5.58-6.29,8.95
		c-9.43,10.33-18.02,21.44-28.71,30.62c-3.1,2.67-6.8,4.73-9.14,8.26c-8.67,5.34-16.7,11.7-25.82,16.32
		c-11.45,5.71-23.19,10.62-35.7,13.59c-3.14,0.75-6.58,0.42-9.39,2.42C285.38,416.51,280.73,416.83,276.07,417.15z"/>
	<path class="st1" d="M198.69,399.33c-7.49-4.84-15.02-9.63-22.54-14.42c-10-8.49-19.64-17.35-28.55-26.99
		c-2.22-2.63-4.44-5.26-6.67-7.88c-1.61-2.06-3.22-4.11-4.82-6.17c-1.97-2.66-3.93-5.32-5.9-7.98c-3-4.69-5.99-9.37-8.99-14.06
		c-25.95-43.43-40.22-90.71-45.93-140.72c-2.96-25.88-3.04-51.85-1.24-77.84c0.24-3.43,2.32-4.37,4.72-5.6
		C138.82,66.8,198.86,35.89,258.91,5.01c2.65-1.36,5.37-2.62,8.05-3.92c0.06,16.68,0.13,33.37,0.19,50.05
		c-1.73,0.97-3.43,2-5.19,2.91c-45.39,23.36-90.77,46.74-136.22,70c-3.15,1.61-4.57,3.43-4.82,7.14c-1.62,23.7-0.72,47.27,3.08,70.7
		c6.23,38.45,18.88,74.48,42.08,106.12c25.04,34.16,56.89,57.19,100.98,58.95c0,16.69,0,33.39,0.01,50.08
		c-3.7,0.03-7.4,0.05-11.1,0.08c-3.5-0.26-6.99-0.51-10.49-0.76c-0.68-0.41-1.31-1.08-2.04-1.2c-14.14-2.39-27.46-7.19-40.25-13.57"
		/>
	<path class="st2" d="M1688,390c-7.03-2.68-13.05-7.22-19.67-10.66c-1.98-1.03-1.43-2.82-1.43-4.38
		c-0.04-11.49-0.02-22.99-0.02-34.48c0-1.6,0-3.2,0-6.33c-2.43,3.25-3.99,5.29-5.5,7.37c-5.98,8.21-12.08,16.34-17.85,24.69
		c-1.92,2.77-4,3.58-7.3,3.89c-6.49,0.61-10.63-1.49-14.23-7.11c-6.09-9.49-13.11-18.39-19.77-27.57c-1.78,1.11-1,2.57-1.01,3.72
		c-0.07,11.83-0.14,23.66,0.03,35.48c0.04,3.07-0.84,4.13-3.94,3.97c-4.65-0.23-9.33-0.13-13.99-0.04
		c-2.34,0.05-3.18-0.82-3.17-3.22c0.07-21.16,0.06-42.31,0.01-63.47c-0.01-2.13,0.68-2.96,2.86-2.93
		c6.16,0.09,12.33,0.15,18.49-0.03c2.51-0.07,3.48,1.5,4.65,3.11c8.52,11.72,17.11,23.38,25.51,35.18c1.89,2.66,2.79,2.89,4.78,0.05
		c8.15-11.57,16.59-22.93,24.76-34.48c1.89-2.67,3.82-4.07,7.3-3.89c6.48,0.34,12.99,0.12,19.49,0.14C1688,336,1688,363,1688,390z"
		/>
	<g>
		<path class="st2" d="M1565.07,374.47c-0.23-9.31-0.08-18.63-0.08-27.94c0-9.81-0.08-19.63,0.05-29.44
			c0.04-2.71-0.59-3.91-3.56-3.77c-4.81,0.22-9.65,0.11-14.47,0.04c-1.98-0.03-3.06,0.4-3.05,2.73c0.06,19.79,0.06,39.59,0,59.38
			c-0.01,2.2,0.81,2.87,2.91,2.84c4.66-0.06,9.33-0.15,13.97,0.19C1564.09,378.72,1565.16,377.86,1565.07,374.47z"/>
		<path class="st2" d="M1555,308.89c10.26,0,10.26,0,9.96-10.09c-0.01-0.41-0.26-0.81-0.53-1.6c-6.36,3.68-12.47,7.21-18.58,10.74
			c0.09,0.32,0.19,0.63,0.28,0.95C1549.09,308.89,1552.04,308.89,1555,308.89z"/>
	</g>
	<path class="st2" d="M1529.71,354.14c-3.77-4.65-7.38-9.45-10.8-14.36c-1.62-2.33-3.5-3.04-6.24-3.02
		c-15.32,0.11-30.64-0.09-45.96,0.15c-4.35,0.07-5.96-3.01-7.34-5.67c-1.36-2.62,2.15-3.99,3.52-5.87c1.12-1.53,3.08-0.96,4.7-0.96
		c14.82-0.03,29.64,0,44.46-0.04c1.77,0,3.7,0.51,5.22-0.99c4.55-4.51,9.11-9.03,13.75-13.63c-0.74-0.45-0.98-0.74-1.24-0.74
		c-25.31-0.03-50.62-0.02-75.93-0.11c-2.13-0.01-3.35,0.84-4.5,2.43c-3.9,5.4-7.76,10.83-11.88,16.05c-1.82,2.3-1.6,3.86,0.18,6.03
		c3.27,3.98,6.49,8.06,9.21,12.43c2.48,3.98,5.45,5.33,10.18,5.22c14.48-0.35,28.97,0.02,43.46-0.22c4.32-0.07,5.97,2.85,7.29,5.63
		c1.16,2.46-2.06,3.75-3.36,5.53c-1.17,1.6-3.08,0.91-4.67,0.92c-14.99,0.04-29.97,0.01-44.96,0.05c-1.47,0-3.45-0.26-4.32,0.54
		c-4.81,4.44-9.35,9.17-14.7,14.53c6.93,0.38,12.52,0.69,18.11,1c0,0,0,0,0,0c-0.39,3.52-0.44,7.02,0.06,11.12
		c6.99-4.32,13.83-7.32,19.72-11.95c6.99,0.07,13.98,0.25,20.97,0.17c7.14-0.09,15.37,2.4,21.12-0.88
		c5.7-3.26,8.94-10.84,13.25-16.53c0.2-0.26,0.36-0.57,0.6-0.8C1531.65,358.18,1531.54,356.4,1529.71,354.14z M1455.1,378.97
		c-0.33,0.02-0.66,0.04-0.99,0.06C1454.44,379.01,1454.77,378.99,1455.1,378.97c5.17-1.97,10.57-0.25,15.81-0.94
		C1465.74,380,1460.34,378.27,1455.1,378.97z"/>
	<g>
		<path class="st2" d="M1300.89,346.46c0-5.5,0.05-11-0.01-16.5c-0.06-5.31,1.84-12.6-0.87-15.42c-3.38-3.53-10.7-0.82-16.3-1.17
			c-0.17-0.01-0.34,0.02-0.5,0c-2.68-0.36-3.37,0.91-3.36,3.45c0.08,19.33,0.08,38.66,0,57.99c-0.01,2.49,0.55,3.61,3.3,3.52
			c4.49-0.14,9.01-0.13,13.49,0.22c3.72,0.29,4.39-1.28,4.32-4.6C1300.76,364.79,1300.89,355.63,1300.89,346.46z"/>
		<path class="st2" d="M1290.28,308.89c10.97,0,10.97,0,10.41-11.93c-6.72,3.89-12.87,7.45-19.03,11.01
			c0.12,0.31,0.23,0.62,0.35,0.92C1284.77,308.89,1287.52,308.89,1290.28,308.89z"/>
	</g>
	<path class="st1" d="M1337.06,296.97c0,11.23,0,21.65,0,32.08c0,9.66,0.17,19.32-0.08,28.96c-0.1,3.78,0.74,5.1,4.84,5.04
		c17.81-0.25,35.62-0.11,54.87-0.11c-5.61,5.53-10.38,10.38-15.38,14.99c-0.77,0.71-2.55,0.44-3.87,0.44
		c-18.98,0.02-37.96-0.06-56.93,0.09c-3.4,0.03-4.55-0.83-4.52-4.41c0.17-20.47,0.07-40.95,0.09-61.43c0-1.61-0.44-3.37,1.42-4.43
		C1323.81,304.6,1330.1,300.97,1337.06,296.97z"/>
	<g>
		<path class="st2" d="M1423.54,329.99c-0.25-5.42,2.54-12.8-1.19-15.7c-3.47-2.7-10.52-0.8-16-0.92c-0.17,0-0.34,0.02-0.5,0
			c-2.69-0.35-3.41,0.98-3.4,3.49c0.07,19.33,0.07,38.66-0.01,58c-0.01,2.48,0.58,3.64,3.32,3.55c4.66-0.14,9.34-0.13,13.99,0.14
			c3.2,0.19,3.94-1.12,3.89-4.06c-0.15-9.5-0.05-19-0.05-28.5C1423.59,340.66,1423.79,335.31,1423.54,329.99z"/>
		<path class="st2" d="M1423.42,298.07c-0.01-0.11-0.23-0.2-0.78-0.67c-5.96,3.44-12.08,6.98-18.2,10.52
			c3.38,0.98,6.33,0.98,9.28,0.98C1424.53,308.9,1424.54,308.9,1423.42,298.07z"/>
	</g>
	<path class="st2" d="M1213.51,378.52c-10.99,0-21.98-0.11-32.96,0.06c-3.25,0.05-4.28-0.91-4.26-4.23
		c0.14-20.48,0.15-40.95-0.01-61.43c-0.03-3.49,1.28-4.05,4.35-4.03c21.97,0.11,43.95,0.11,65.92-0.01
		c2.67-0.01,4.25,0.93,5.73,3.02c3.65,5.16,7.42,10.24,11.32,15.22c1.68,2.14,2.01,3.76,0.15,6.06c-2.7,3.33-6.9,7.02-6.88,10.53
		c0.02,3.54,4.28,7.16,6.94,10.55c1.61,2.06,1.65,3.57,0.01,5.66c-4.1,5.24-8.06,10.59-11.88,16.04c-1.44,2.06-3.11,2.6-5.46,2.58
		C1235.48,378.48,1224.5,378.52,1213.51,378.52z M1217.31,336.82c5.48,0,10.97,0.01,16.45,0c3.31-0.01,8.27-3.62,8.52-6.17
		c0.23-2.33-4.93-6.23-8.33-6.24c-9.47-0.02-18.95-0.1-28.42,0.02c-9.17,0.12-7.98-1.95-8.25,8.62c-0.08,3.21,1.15,3.93,4.07,3.83
		C1206.67,336.68,1211.99,336.82,1217.31,336.82z M1217.74,362.95c5.48,0,10.96,0.02,16.45-0.01c3.26-0.01,8.13-3.64,8.01-5.91
		c-0.12-2.45-4.82-6.08-7.97-6.09c-9.63-0.02-19.27-0.01-28.9-0.01c-8.25,0-8.09,0-8.06,8.23c0.01,3.14,1.06,3.96,4.03,3.85
		C1206.77,362.8,1212.26,362.95,1217.74,362.95z"/>
	<path class="st3" d="M1688,269c-8.92-1.12-17.88-0.44-26.82-0.39c-4.43,0.03-7.81-1.12-11.26-3.98
		c-31.01-25.73-62.17-51.29-93.29-76.89c-1.12-0.92-2.29-1.77-3.51-2.71c-1.21,1.75-0.64,3.45-0.65,5.03
		c-0.04,24.66-0.09,49.31,0.04,73.97c0.02,3.23-0.81,5.04-3.82,6.56c-13.14,6.65-26.14,13.58-39.75,20.71c0-1.94,0-3.21,0-4.49
		c0-52.65,0.04-105.29-0.09-157.94c-0.01-3.86,0.88-5.08,4.86-4.9c8.8,0.41,18.36-1.79,26.21,1.01c7.68,2.74,13.63,10.35,20.3,15.86
		c26.84,22.15,53.67,44.32,80.52,66.46c0.84,0.69,1.46,1.79,2.87,1.82c1.05-1.49,0.49-3.19,0.49-4.75
		c0.04-25.32,0.1-50.65-0.05-75.97c-0.02-3.48,0.84-4.5,4.39-4.43c12.82,0.27,25.65,0.2,38.47,0.25
		c0.03,45.71,0.05,91.41,0.14,137.12c0,1.88-0.84,4.01,0.93,5.65C1688,267.67,1688,268.33,1688,269z"/>
	<path class="st4" d="M1482.38,236.11c-10.85,10.9-20.95,21-30.98,31.17c-1.39,1.41-2.99,1.22-4.63,1.22
		c-42.49,0.01-84.98-0.04-127.47,0.09c-3.63,0.01-4.31-1.16-4.3-4.52c0.11-45.16,0.1-90.32,0.01-135.47
		c-0.01-3.15,0.27-4.64,4.13-4.63c55.16,0.14,110.31,0.09,165.47,0.09c0.62,0,1.23,0,3.05,0c-7.47,7.54-14.79,13.83-20.76,21.22
		c-7.24,8.97-15.67,11.77-27.12,11.37c-25.46-0.9-50.98-0.19-76.47-0.38c-3.85-0.03-4.83,1.09-4.61,4.74
		c0.31,5.15,0.46,10.36-0.03,15.48c-0.47,4.88,1.54,5.54,5.8,5.52c31.99-0.17,63.99-0.09,95.98-0.09c1.64,0,3.28,0,6.2,0
		c-6.8,6.76-13.41,12.32-18.75,18.91c-6.79,8.38-14.69,11.08-25.41,10.58c-19.62-0.9-39.32-0.12-58.98-0.36
		c-4.12-0.05-5.04,1.27-4.82,5.03c0.3,5.15,0.34,10.35-0.01,15.49c-0.26,3.75,0.86,4.65,4.61,4.64
		c36.66-0.16,73.32-0.09,109.98-0.09C1475.92,236.11,1478.56,236.11,1482.38,236.11z"/>
	<path class="st4" d="M1289.06,124.98c-7.31,7.32-15.22,14.22-21.87,22.17c-6.27,7.49-13.34,9.64-22.92,9.45
		c-29.98-0.62-59.98-0.12-89.98-0.34c-4.64-0.03-7.64,1.28-10.49,4.93c-6.07,7.78-6.03,7.44-0.45,15.07
		c3.15,4.31,6.6,5.84,11.99,5.8c32.82-0.28,65.65-0.09,98.48-0.22c3.19-0.01,5.13,0.93,7,3.48c8.87,12.07,17.88,24.04,26.99,35.93
		c1.7,2.22,1.73,3.66,0.01,5.93c-9.54,12.61-18.96,25.32-28.24,38.12c-1.77,2.45-3.64,3.29-6.6,3.27c-24.83-0.11-49.66,0-74.48-0.13
		c-3.65-0.02-6.76,0.84-9.88,2.67c-12.6,7.36-25.29,14.56-38.72,22.26c0-7.54-0.13-14.43,0.06-21.3c0.08-2.9-0.89-3.65-3.68-3.61
		c-10.16,0.15-20.33,0.06-30.49,0.06c-1.61,0-3.21,0-4.82,0c-0.28-0.48-0.55-0.96-0.83-1.45c10.23-9.96,20.47-19.91,30.67-29.9
		c1.57-1.54,3.43-1.03,5.19-1.03c32.66-0.03,65.32-0.2,97.98,0.14c5.8,0.06,9.55-1.62,12.96-6.09c4.67-6.12,4.51-5.67,0.34-11.9
		c-3.71-5.55-8.02-7.4-14.77-7.31c-32.15,0.42-64.32,0.14-96.48,0.26c-3.33,0.01-5.38-0.94-7.36-3.69
		c-8.77-12.14-17.74-24.15-26.82-36.06c-1.74-2.28-1.72-3.64,0-5.91c9.62-12.76,19.09-25.63,28.51-38.54
		c1.49-2.04,2.94-3.03,5.66-3.03c53.49,0.1,106.98,0.07,160.47,0.1C1287.22,124.09,1288.13,123.67,1289.06,124.98z"/>
	<path class="st4" d="M898.94,293.43c0-3.28,0-5.76,0-8.23c0-51.98,0.07-103.95-0.13-155.93c-0.02-4.57,1.27-5.42,5.49-5.31
		c11.15,0.31,22.32,0.27,33.48,0.01c3.66-0.08,4.77,0.75,4.73,4.59c-0.21,20.32-0.11,40.65-0.07,60.97c0,1.41-0.49,2.94,0.55,4.35
		c1.78-0.37,2.65-1.9,3.79-2.97c22.43-21.13,44.88-42.25,67.17-63.52c2.64-2.52,5.23-3.43,8.79-3.39c15.1,0.17,30.2,0.07,45.49,0.07
		c-0.43,2.2-2.05,2.95-3.17,4.03c-15.74,15.12-31.42,30.29-47.37,45.18c-3.2,2.99-2.79,4.38,0.07,7.18
		c14.64,14.34,29.01,28.95,43.58,43.35c2.28,2.25,3.41,4.47,3.35,7.78c-0.22,10.99-0.18,21.99-0.02,32.98
		c0.04,3-0.74,4.04-3.89,3.99c-12.16-0.17-24.32-0.14-36.48-0.02c-2.61,0.03-3.41-0.73-3.36-3.36c0.15-9.49-0.02-18.99,0.11-28.48
		c0.03-2.36-0.67-4.02-2.33-5.66c-9.14-9-18.24-18.04-27.22-27.19c-1.88-1.92-2.98-2.27-5.12-0.22
		c-13.83,13.25-27.79,26.37-41.76,39.47c-1.6,1.5-2.26,3.07-2.22,5.24c0.11,5.83-0.03,11.66,0.08,17.49
		c0.04,2.03-0.44,3.32-2.37,4.39C926.6,277.74,913.2,285.37,898.94,293.43z"/>
	<path class="st4" d="M872.34,236.11c-10.83,10.88-20.92,20.98-30.95,31.15c-1.39,1.41-2.98,1.25-4.62,1.25
		c-42.49,0.01-84.98-0.04-127.47,0.08c-3.58,0.01-4.35-1.06-4.34-4.47c0.11-45.32,0.11-90.65,0.01-135.97
		c-0.01-3.21,0.76-4.17,4.09-4.16c55.15,0.11,110.31,0.08,165.46,0.08c0.62,0,1.25,0,3.11,0c-5.81,5.86-10.86,11.01-15.97,16.09
		c-5.43,5.39-10.07,12.73-16.62,15.5c-6.38,2.69-14.75,0.71-22.24,0.71c-23.16,0.02-46.32,0.1-69.48-0.09
		c-3.78-0.03-4.88,0.96-4.66,4.69c0.33,5.65,0.31,11.34,0,16.99c-0.19,3.46,1.14,4.03,4.24,4.02c32.49-0.1,64.98-0.06,97.48-0.06
		c1.65,0,3.29,0,4.94,0c0.29,0.36,0.59,0.71,0.88,1.07c-4.97,4.72-9.98,9.4-14.89,14.18c-4.66,4.52-8.48,10.95-14.03,13.22
		c-5.74,2.34-13.11,0.74-19.76,0.76c-18.16,0.04-36.33,0.11-54.49-0.07c-3.57-0.04-4.54,1.04-4.36,4.47
		c0.28,5.32,0.32,10.68-0.01,15.99c-0.23,3.68,0.75,4.7,4.57,4.68c33.66-0.17,67.32-0.1,100.98-0.1
		C859.86,236.11,865.51,236.11,872.34,236.11z"/>
	<path class="st3" d="M492.9,124.23c63.57,0,127.14,0,190.74,0c0.75,1.57-0.75,2.03-1.45,2.74c-8.76,8.91-17.63,17.71-26.32,26.68
		c-2.04,2.11-4.17,2.81-7.03,2.77c-11.33-0.14-22.66,0.14-33.98-0.16c-4.09-0.11-4.86,1.25-4.85,5.03
		c0.14,34.15,0.01,68.31,0.18,102.46c0.02,3.68-1.13,5.55-4.29,7.29c-12.91,7.13-25.65,14.57-38.54,21.95
		c-1.19-1.96-0.66-3.8-0.66-5.53c-0.04-41.98-0.09-83.97,0.07-125.95c0.02-4.13-1-5.37-5.21-5.26c-11.32,0.3-22.66,0.1-33.98,0.11
		c-1.98,0-3.82,0.07-5.49-1.58c-9.95-9.83-20.01-19.54-30.03-29.3C492.33,125.07,492.62,124.65,492.9,124.23z"/>
	<path class="st0" d="M266.99,90.74c1.46-1.28,2.5,0.18,3.52,0.7c33.6,17.22,67.13,34.56,100.77,51.7c4.5,2.29,6.88,4.72,7.16,10.34
		c2.38,49.01-7.25,94.64-37.46,134.41c-14.92,19.64-33.99,33.61-58.76,38.46c-5.03,0.98-10.13,1.96-15.33,1.37
		c0.55-6.14,1.25-12.28,1-18.46c4.45-0.51,8.9-1.07,13.36-1.53c4.31-0.45,5.94-2.37,5.89-7.08c-0.26-27.31-0.01-54.62-0.24-81.92
		c-0.04-4.39,1.15-6.35,5.41-7.74c21.33-6.95,42.52-14.34,63.83-21.37c3.49-1.15,5.2-2.57,5.02-6.53
		c-0.34-7.31-0.27-14.65-0.13-21.97c0.08-3.88-1.18-4.4-4.71-3.18c-18.06,6.27-36.16,12.41-54.31,18.41
		c-11.61,3.84-22.96,8.5-34.93,11.23C267.05,155.29,267.02,123.01,266.99,90.74z"/>
	<path class="st5" d="M266.99,90.74c0.03,32.28,0.06,64.55,0.09,96.83c-30.51-10.24-61.03-20.48-91.8-30.81
		c-1.52,8.9-1.11,17.52-1.07,26.14c0.02,3.7,1.38,5.48,5.01,6.68c21.92,7.23,43.72,14.81,65.62,22.08c2.89,0.96,3.99,2.21,3.83,5.25
		c-0.25,4.81-0.07,9.65-0.07,14.48c0,23.3,0.09,46.6-0.09,69.9c-0.03,3.93,1.08,5.83,5.03,6.2c4.79,0.45,9.55,1.17,14.33,1.77
		c0.25,6.19-0.45,12.32-1,18.46c-22.39-0.33-41.29-9.23-57.61-23.98c-23.36-21.11-36.78-48.09-45.08-77.93
		c-6.84-24.61-8.46-49.76-7.05-75.18c0.13-2.27,0.51-4.02,2.89-5.23c35.36-18.08,70.67-36.26,106-54.4
		C266.31,90.84,266.66,90.82,266.99,90.74z"/>
</g>
</svg>
